<?xml version="1.0" standalone="no"?><!DOCTYPE svg PUBLIC "-//W3C//DTD SVG 1.1//EN" "http://www.w3.org/Graphics/SVG/1.1/DTD/svg11.dtd"><svg t="1701417715478" class="icon" viewBox="0 0 1024 1024" version="1.1" xmlns="http://www.w3.org/2000/svg" p-id="20396" xmlns:xlink="http://www.w3.org/1999/xlink" width="200" height="200"><path d="M582.464 587.136c34.112 40.170667 67.52 66.368 102.784 82.389333 26.197333 11.925333 49.472 18.112 83.093333 21.141334l11.626667 0.917333 12.48 0.682667 13.461333 0.490666 14.570667 0.341334 18.474667 0.170666-50.922667-50.901333a32 32 0 0 1 45.269333-45.248l82.965334 82.965333a64 64 0 0 1 0 90.496l-82.986667 82.986667a32 32 0 1 1-45.226667-45.269333l50.986667-51.029334h-3.946667l-16.981333-0.213333-15.786667-0.362667-7.509333-0.256-14.250667-0.661333a640.064 640.064 0 0 1-6.784-0.426667l-12.928-1.024c-39.786667-3.626667-68.586667-11.306667-102.101333-26.517333-44.224-20.117333-85.098667-52.181333-125.077333-99.264a32 32 0 1 1 48.789333-41.408zM833.301333 170.453333l82.965334 82.965334a64 64 0 0 1 0 90.496l-82.986667 82.986666a32 32 0 1 1-45.226667-45.269333l50.88-50.922667-18.453333 0.213334-14.570667 0.32-13.461333 0.490666-12.48 0.682667-11.626667 0.917333c-33.621333 3.029333-56.896 9.216-83.093333 21.12-55.146667 25.066667-106.794667 75.733333-161.642667 164.970667l-11.413333 18.773333c-61.077333 99.264-121.685333 158.72-189.610667 189.610667-30.933333 14.058667-57.856 21.653333-93.098666 25.6l-9.002667 0.917333-12.928 1.024-6.784 0.426667-14.250667 0.661333-7.509333 0.256-15.786667 0.362667-16.981333 0.213333L128 757.333333a32 32 0 0 1-3.072-63.850666L128 693.333333l17.066667-0.064 15.786666-0.170666 14.570667-0.341334 13.461333-0.490666 12.48-0.682667 11.626667-0.917333c33.621333-3.029333 56.896-9.216 83.093333-21.12 55.146667-25.066667 106.794667-75.733333 161.642667-164.970667l11.413333-18.773333c61.077333-99.264 121.685333-158.72 189.610667-189.610667 30.933333-14.058667 57.856-21.653333 93.098667-25.6l9.002666-0.917333 12.928-1.024 6.784-0.426667 14.250667-0.661333 7.509333-0.256 15.786667-0.362667 20.928-0.256-50.986667-50.986667a32 32 0 0 1 45.226667-45.248zM128 266.666667l18.24 0.064 16.981333 0.213333 15.786667 0.362667 7.509333 0.256 14.250667 0.661333a640 640 0 0 1 6.784 0.426667l12.928 1.024c39.786667 3.626667 68.586667 11.306667 102.101333 26.517333 44.202667 20.117333 85.077333 52.16 125.056 99.221333a32 32 0 1 1-48.789333 41.429334c-34.112-40.149333-67.52-66.346667-102.762667-82.368-26.197333-11.925333-49.472-18.112-83.093333-21.141334l-11.626667-0.917333-12.48-0.682667-13.461333-0.490666-14.570667-0.341334-15.786666-0.170666L128 330.666667a32 32 0 0 1 0-64z" fill="#111111" p-id="20397"></path></svg>